<svg xmlns="http://www.w3.org/2000/svg" id="Capa_2" data-name="Capa 2" viewBox="0 0 1756 313.86"><defs><style>      .cls-1 {        fill: #1d1d1b;      }      .cls-1, .cls-2 {        stroke-width: 0px;      }      .cls-2 {        fill: #fff;      }    </style></defs><g id="Capa_1-2" data-name="Capa 1"><g><path class="cls-2" d="M1430.53,308.93h74.15c3.2,0,5.81-2.59,5.81-5.79v-5.02c0-3.2-2.6-5.81-5.81-5.81h-18.02c-3.2,0-5.81-2.59-5.81-5.8V21.47c0-3.2-2.6-5.79-5.81-5.79-1.27,0-2.51.41-3.52,1.19l-55.1,42.17c-2.63,2.02-3.04,5.83-.9,8.37l1.26,1.49c2.02,2.39,5.57,2.75,8.02.82l20.16-15.88c3.8-3,9.39-.28,9.39,4.55v228.12c0,3.21-2.6,5.8-5.81,5.8h-18.02c-3.21,0-5.81,2.61-5.81,5.81v5.02c0,3.2,2.6,5.79,5.81,5.79M1658.77,27.35c-47.72,0-70.7,46.19-70.7,134.95s22.98,134.95,70.7,134.95,70.73-46.19,70.74-134.95c0-88.76-23-134.95-70.74-134.95M1561.56,162.3c0-101.92,32.77-151.56,97.21-151.56s97.23,49.64,97.24,151.56c0,101.94-32.8,151.57-97.24,151.57s-97.21-49.63-97.21-151.57"></path><path class="cls-2" d="M1158.84,31.63h15.06c3.2,0,5.81-2.59,5.81-5.8v-15.06c0-3.2-2.6-5.81-5.81-5.81h-15.06c-3.21,0-5.8,2.6-5.8,5.81v15.06c0,3.21,2.59,5.8,5.8,5.8M1158.84,299.88h15.06c3.2,0,5.81-2.6,5.81-5.8V110.12c0-3.2-2.6-5.8-5.81-5.8h-15.06c-3.21,0-5.8,2.6-5.8,5.8v183.96c0,3.2,2.59,5.8,5.8,5.8M903.46,99.95c-39.84-.37-62.12,10.95-68.41,33.04l-3.08-.43v-22.44c0-3.2-2.6-5.8-5.81-5.8h-15.06c-3.2,0-5.81,2.6-5.81,5.8v183.96c0,3.2,2.6,5.8,5.81,5.8h15.06c3.21,0,5.81-2.6,5.81-5.8v-111.84c0-43.69,18.67-66.16,56.21-66.16s56.21,22.47,56.21,66.16v111.84c0,3.2,2.59,5.8,5.8,5.8h15.07c3.2,0,5.8-2.6,5.8-5.8v-111.84c0-43.69,18.67-66.16,56.22-66.16s56.2,22.47,56.2,66.16v111.84c0,3.2,2.6,5.8,5.81,5.8h15.05c3.21,0,5.81-2.6,5.81-5.8v-111.84c0-55.76-22.73-82.91-67.97-82.91-45.99.03-71.16,16.37-76.93,48.41l-3.12-.29c0-31.3-19.06-47.24-58.66-47.51M555.73,99.95c-39.86-.37-62.1,10.95-68.42,33.04l-3.09-.43v-22.44c0-3.2-2.6-5.8-5.81-5.8h-15.05c-3.21,0-5.8,2.6-5.8,5.8v183.96c0,3.2,2.59,5.8,5.8,5.8h15.05c3.21,0,5.81-2.6,5.81-5.8v-111.84c0-43.69,18.68-66.16,56.22-66.16s56.21,22.47,56.21,66.16v111.84c0,3.2,2.6,5.8,5.81,5.8h15.06c3.21,0,5.81-2.6,5.81-5.8v-111.84c0-43.69,18.67-66.16,56.21-66.16s56.24,22.47,56.24,66.16v111.84c0,3.2,2.59,5.8,5.8,5.8h15.06c3.2,0,5.8-2.6,5.8-5.8v-111.84c-.01-55.75-22.76-82.91-67.99-82.91-46,.03-71.18,16.37-76.95,48.41l-3.13-.29c0-31.3-19.04-47.24-58.63-47.51M306.95,304.84c46.37,0,71.7-11.61,77.98-33.62l3.07.42v22.45c0,3.2,2.6,5.8,5.8,5.8h15.07c3.21,0,5.81-2.6,5.81-5.8V110.12c0-3.2-2.6-5.8-5.81-5.8h-15.07c-3.2,0-5.8,2.6-5.8,5.8v111.83c0,43.82-20.46,66.17-61.18,66.17s-61.18-22.34-61.18-66.17v-111.83c0-3.2-2.6-5.8-5.81-5.8h-15.06c-3.21,0-5.8,2.6-5.8,5.8v111.83c0,55.76,22.75,82.88,67.97,82.88M99.31,304.84c68.21,0,101.74-29.59,101.74-88.83,0-37.17-32.26-63.91-99.11-79.54-46.38-9.53-71.36-27.15-72.77-53.55,0-44.01,23.66-66.2,70.15-66.2,34.17.67,57.3,14.79,68.87,42.42.04.11.09.19.14.3l5.42,10.34c1.43,2.73,4.75,3.86,7.56,2.58l8.84-4.06c2.84-1.29,4.14-4.61,2.94-7.49l-5.85-14.15C176.97,15.82,148.02,0,99.31,0,34.36,0,2.51,27.67,2.51,82.87c0,37.14,29.96,61.24,91.98,71.56.11.02.21.04.32.06,52.5,11.61,79.6,35.95,79.6,73.45,0,40.28-25.54,60.18-75.08,60.18-36.91.67-61.38-14.15-72.93-44.56l-5.33-10.14c-1.49-2.84-5-3.93-7.84-2.44l-10.11,5.33c-2.66,1.4-3.82,4.61-2.66,7.38l6.75,16.06c.08.17.16.35.25.53,14.93,29.58,45.29,44.56,91.86,44.56M1279.06,241.83c0,35.8,20.67,49.13,60.03,40.79,3.08-.66,6.12,1.38,6.78,4.47l1.16,5.44c.7,3.21-1.41,6.36-4.65,6.94l-30.23,5.41c-40.05,6.43-59.77-10.95-59.77-53.1v-124.93c0-3.2-2.6-5.8-5.81-5.8h-24.78c-2.66,0-4.99-1.81-5.63-4.41l-1.28-5.12c-.91-3.66,1.85-7.21,5.63-7.21h26.06c3.21,0,5.81-2.6,5.81-5.8V33.55c0-2.49,1.59-4.71,3.96-5.5l15.06-5.04c3.75-1.26,7.64,1.55,7.64,5.51v69.99c0,3.2,2.59,5.8,5.8,5.8h55.87c3.77,0,6.54,3.55,5.63,7.21l-1.28,5.12c-.64,2.59-2.97,4.41-5.63,4.41h-54.59c-3.21,0-5.8,2.6-5.8,5.8v114.98Z"></path><path class="cls-1" d="M1430.53,308.93h74.15c3.2,0,5.81-2.59,5.81-5.79v-5.02c0-3.2-2.6-5.81-5.81-5.81h-18.02c-3.2,0-5.81-2.59-5.81-5.8V21.47c0-3.2-2.6-5.79-5.81-5.79-1.27,0-2.51.41-3.52,1.19l-55.1,42.17c-2.63,2.02-3.04,5.83-.9,8.37l1.26,1.49c2.02,2.39,5.57,2.75,8.02.82l20.16-15.88c3.8-3,9.39-.28,9.39,4.55v228.12c0,3.21-2.6,5.8-5.81,5.8h-18.02c-3.21,0-5.81,2.61-5.81,5.81v5.02c0,3.2,2.6,5.79,5.81,5.79M1658.77,27.35c-47.72,0-70.7,46.19-70.7,134.95s22.98,134.95,70.7,134.95,70.73-46.19,70.74-134.95c0-88.76-23-134.95-70.74-134.95M1561.56,162.3c0-101.92,32.77-151.56,97.21-151.56s97.23,49.64,97.24,151.56c0,101.94-32.8,151.57-97.24,151.57s-97.21-49.63-97.21-151.57"></path><path class="cls-1" d="M1158.84,31.63h15.06c3.2,0,5.81-2.59,5.81-5.8v-15.06c0-3.2-2.6-5.81-5.81-5.81h-15.06c-3.21,0-5.8,2.6-5.8,5.81v15.06c0,3.21,2.59,5.8,5.8,5.8M1158.84,299.88h15.06c3.2,0,5.81-2.6,5.81-5.8V110.12c0-3.2-2.6-5.8-5.81-5.8h-15.06c-3.21,0-5.8,2.6-5.8,5.8v183.96c0,3.2,2.59,5.8,5.8,5.8M903.46,99.95c-39.84-.37-62.12,10.95-68.41,33.04l-3.08-.43v-22.44c0-3.2-2.6-5.8-5.81-5.8h-15.06c-3.2,0-5.81,2.6-5.81,5.8v183.96c0,3.2,2.6,5.8,5.81,5.8h15.06c3.21,0,5.81-2.6,5.81-5.8v-111.84c0-43.69,18.67-66.16,56.21-66.16s56.21,22.47,56.21,66.16v111.84c0,3.2,2.59,5.8,5.8,5.8h15.07c3.2,0,5.8-2.6,5.8-5.8v-111.84c0-43.69,18.67-66.16,56.22-66.16s56.2,22.47,56.2,66.16v111.84c0,3.2,2.6,5.8,5.81,5.8h15.05c3.21,0,5.81-2.6,5.81-5.8v-111.84c0-55.76-22.73-82.91-67.97-82.91-45.99.03-71.16,16.37-76.93,48.41l-3.12-.29c0-31.3-19.06-47.24-58.66-47.51M555.73,99.95c-39.86-.37-62.1,10.95-68.42,33.04l-3.09-.43v-22.44c0-3.2-2.6-5.8-5.81-5.8h-15.05c-3.21,0-5.8,2.6-5.8,5.8v183.96c0,3.2,2.59,5.8,5.8,5.8h15.05c3.21,0,5.81-2.6,5.81-5.8v-111.84c0-43.69,18.68-66.16,56.22-66.16s56.21,22.47,56.21,66.16v111.84c0,3.2,2.6,5.8,5.81,5.8h15.06c3.21,0,5.81-2.6,5.81-5.8v-111.84c0-43.69,18.67-66.16,56.21-66.16s56.24,22.47,56.24,66.16v111.84c0,3.2,2.59,5.8,5.8,5.8h15.06c3.2,0,5.8-2.6,5.8-5.8v-111.84c-.01-55.75-22.76-82.91-67.99-82.91-46,.03-71.18,16.37-76.95,48.41l-3.13-.29c0-31.3-19.04-47.24-58.63-47.51M306.95,304.84c46.37,0,71.7-11.61,77.98-33.62l3.07.42v22.45c0,3.2,2.6,5.8,5.8,5.8h15.07c3.21,0,5.81-2.6,5.81-5.8V110.12c0-3.2-2.6-5.8-5.81-5.8h-15.07c-3.2,0-5.8,2.6-5.8,5.8v111.83c0,43.82-20.46,66.17-61.18,66.17s-61.18-22.34-61.18-66.17v-111.83c0-3.2-2.6-5.8-5.81-5.8h-15.06c-3.21,0-5.8,2.6-5.8,5.8v111.83c0,55.76,22.75,82.88,67.97,82.88M99.31,304.84c68.21,0,101.74-29.59,101.74-88.83,0-37.17-32.26-63.91-99.11-79.54-46.38-9.53-71.36-27.15-72.77-53.55,0-44.01,23.66-66.2,70.15-66.2,34.17.67,57.3,14.79,68.87,42.42.04.11.09.19.14.3l5.42,10.34c1.43,2.73,4.75,3.86,7.56,2.58l8.84-4.06c2.84-1.29,4.14-4.61,2.94-7.49l-5.85-14.15C176.97,15.82,148.02,0,99.31,0,34.36,0,2.51,27.67,2.51,82.87c0,37.14,29.96,61.24,91.98,71.56.11.02.21.04.32.06,52.5,11.61,79.6,35.95,79.6,73.45,0,40.28-25.54,60.18-75.08,60.18-36.91.67-61.38-14.15-72.93-44.56l-5.33-10.14c-1.49-2.84-5-3.93-7.84-2.44l-10.11,5.33c-2.66,1.4-3.82,4.61-2.66,7.38l6.75,16.06c.08.17.16.35.25.53,14.93,29.58,45.29,44.56,91.86,44.56M1279.06,241.83c0,35.8,20.67,49.13,60.03,40.79,3.08-.66,6.12,1.38,6.78,4.47l1.16,5.44c.7,3.21-1.41,6.36-4.65,6.94l-30.23,5.41c-40.05,6.43-59.77-10.95-59.77-53.1v-124.93c0-3.2-2.6-5.8-5.81-5.8h-24.78c-2.66,0-4.99-1.81-5.63-4.41l-1.28-5.12c-.91-3.66,1.85-7.21,5.63-7.21h26.06c3.21,0,5.81-2.6,5.81-5.8V33.55c0-2.49,1.59-4.71,3.96-5.5l15.06-5.04c3.75-1.26,7.64,1.55,7.64,5.51v69.99c0,3.2,2.59,5.8,5.8,5.8h55.87c3.77,0,6.54,3.55,5.63,7.21l-1.28,5.12c-.64,2.59-2.97,4.41-5.63,4.41h-54.59c-3.21,0-5.8,2.6-5.8,5.8v114.98Z"></path></g></g></svg>