<?xml version="1.0" encoding="UTF-8"?>
<svg id="Warstwa_1" data-name="Warstwa 1" xmlns="http://www.w3.org/2000/svg" viewBox="0 0 314.26 72.72">
  <defs>
    <style>
      .cls-1, .cls-2 {
        stroke-width: 0px;
      }

      .cls-2 {
        fill: #892ab0;
      }
    </style>
  </defs>
  <g>
    <path class="cls-2" d="M210.39,25.19c-.14-5.91-2.91-9.21-7.52-9.21-6.57,0-11.31,7.64-11.31,19.61,0,8.04,2.71,12.13,7.92,12.13,4.4,0,7.86-3.23,9.48-9.06h14.97c-2.17,14.57-11.18,23.24-23.98,23.24-14.7,0-23.78-10.32-23.78-27.33,0-8.59,2.57-16.62,6.98-22.61,4.81-6.46,11.58-9.92,19.78-9.92,13.41,0,21.07,8.11,22.01,23.16h-14.56Z"/>
    <path class="cls-2" d="M265.26,36.38l-2.03,15.12c-.2,1.5-.34,2.68-.34,3.47,0,1.65.34,2.99,1.22,4.17v1.1h-13.75l-.47-3.94c-3.93,3.54-8.06,5.28-12.46,5.28-7.32,0-11.79-4.8-11.79-11.66,0-10.16,5.62-14.02,17.75-15.44,5.96-.71,8.87-.55,8.87-4.1,0-2.13-1.63-3.55-4.54-3.55-3.12,0-4.67,1.34-4.94,4.25h-13.41c1.15-9.53,7.52-14.1,19.44-14.1,11.25,0,17,4.73,17,13.15,0,1.18-.14,3.31-.54,6.22ZM239.72,48.19c0,2.05,1.35,3.46,3.66,3.46,4.41,0,7.32-3.54,7.59-10.08-7.25,2.76-11.24,1.65-11.24,6.62Z"/>
    <path class="cls-2" d="M293.03,27.71h-5.49l-2.03,16.15c-.07.39-.07.79-.07,1.18,0,2.28,1.15,3.15,3.93,3.15.54,0,1.08,0,1.69-.08l-1.49,12.05c-3.12.47-5.69.63-7.72.63-6.77,0-10.5-3.62-10.5-9.69,0-1.18.14-2.68.41-4.65l2.3-18.75h-5.08l1.22-9.29h5.08l1.56-12.84h13.48l-1.63,12.84h5.49l-1.15,9.29Z"/>
  </g>
  <polygon class="cls-1" points="48.94 14.35 48.94 .03 0 .03 0 14.35 16.98 14.35 16.98 60.26 32.04 60.26 32.04 14.35 48.94 14.35"/>
  <g>
    <path class="cls-1" d="M66.24,31.18v-12.41l-.47-.11c-.93-.21-2.01-.32-3.21-.32-5.14,0-9.22,2.18-11.54,6.04v-5.28h-13.91v41.14h14.29v-20.37c0-2.49.88-4.74,2.46-6.33,1.65-1.65,3.99-2.52,6.77-2.52,1.83,0,3.41.36,4.83.75l.77.21v-.8Z"/>
    <path class="cls-1" d="M83.04,31.31c1.17-1.17,2.69-1.77,4.51-1.77s3.37.6,4.55,1.79c1.81,1.81,2.83,4.99,2.83,8.75,0,5.06-1.94,10.47-7.38,10.47-1.84,0-3.37-.6-4.53-1.78-1.76-1.76-2.77-4.94-2.77-8.7s1.02-6.99,2.79-8.77M87.55,18.32c-12.51,0-21.59,9.15-21.59,21.76,0,6.09,2.18,11.62,6.15,15.6,3.92,3.92,9.4,6.09,15.44,6.09s11.58-2.18,15.53-6.13c3.97-3.97,6.15-9.49,6.15-15.56s-2.19-11.63-6.2-15.63c-3.95-3.96-9.45-6.13-15.48-6.13"/>
    <path class="cls-1" d="M139.63,38.36c0,5.29-1.9,10.93-7.23,10.93-2.05,0-3.61-.56-4.77-1.72-1.7-1.7-2.54-4.71-2.54-9.2,0-3.65.89-6.39,2.63-8.14,1.68-1.69,3.7-1.93,4.75-1.93,1.79,0,3.28.58,4.45,1.74,1.71,1.72,2.7,4.76,2.7,8.33M135.47,17.06c-4.3,0-7.92,1.64-10.53,4.76v-3.61h-13.68v54.51h14.29v-16.79c2.74,3.03,6.4,4.56,10.93,4.56s8.52-1.58,11.54-4.59c3.76-3.75,5.91-9.68,5.91-16.25,0-7.47-2.21-13.81-6.25-17.84-3.15-3.16-7.27-4.76-12.21-4.76"/>
  </g>
  <rect class="cls-1" x="156.54" y="18.46" width="14.29" height="41.8"/>
  <rect class="cls-1" x="156.56" y="3.48" width="14.31" height="11.23"/>
  <g>
    <path class="cls-1" d="M307.07.7c-3.58,0-6.48,2.91-6.48,6.49s2.91,6.49,6.48,6.49,6.5-2.91,6.5-6.49-2.91-6.49-6.5-6.49M307.07,14.38c-3.96,0-7.18-3.23-7.18-7.19s3.22-7.19,7.18-7.19,7.2,3.23,7.2,7.19-3.23,7.19-7.2,7.19"/>
    <path class="cls-1" d="M307.75,6.84c.49,0,.88-.1,1.17-.3.29-.2.43-.57.43-1.1,0-.56-.2-.95-.6-1.16-.22-.11-.51-.16-.86-.16h-2.57v2.72h2.44ZM304.23,3.18h3.63c.6,0,1.09.09,1.48.27.74.34,1.11.97,1.11,1.89,0,.48-.09.87-.29,1.18-.2.31-.48.55-.84.74.31.13.55.3.71.5.16.21.25.55.27,1.01l.03,1.08c0,.3.04.52.08.68.06.25.17.41.34.48v.19h-1.33c-.04-.07-.07-.16-.09-.26-.02-.11-.04-.32-.05-.64l-.07-1.34c-.03-.52-.21-.88-.57-1.05-.2-.1-.52-.15-.94-.15h-2.39v3.44h-1.08V3.18Z"/>
  </g>
</svg>