<?xml version="1.0" encoding="UTF-8"?>
<svg id="Warstwa_1" data-name="Warstwa 1" xmlns="http://www.w3.org/2000/svg" viewBox="0 0 341.86 77.61">
  <defs>
    <style>
      .cls-1, .cls-2 {
        stroke-width: 0px;
      }

      .cls-2 {
        fill: #508c28;
      }
    </style>
  </defs>
  <g>
    <path class="cls-2" d="M199.85,60.51h-24.97l8.05-56.93h21.51c9.48,0,15.42,1.5,20.46,8.47,2.93,4.04,4.66,9.98,4.66,17.02,0,20.27-10.38,31.43-29.71,31.43ZM201.88,17.44h-3.91l-3.99,28.98h3.99c4.21,0,7.3-.31,9.93-2.93,2.33-2.3,4.44-7.84,4.44-14.33,0-8.71-2.86-11.72-10.45-11.72Z"/>
    <path class="cls-2" d="M251.95,62.01c-13.54,0-21.51-8.16-21.51-20.43,0-14.96,9.4-24.7,23.99-24.7,13.31,0,21.29,8,21.29,20.27,0,15.44-8.88,24.86-23.77,24.86ZM254.05,28.29c-4.89,0-7.82,4.91-7.82,13.94,0,5.46,1.88,8.15,5.94,8.15,4.66,0,7.75-5.15,7.75-13.54,0-5.7-1.96-8.55-5.87-8.55Z"/>
    <path class="cls-2" d="M318.68,55.84c-.98,7.44-2.49,12.59-5.79,16.07-3.76,3.88-9.55,5.7-17.6,5.7-12.11,0-18.8-4.67-19.11-12.27h15.12c.53,1.9,2.03,2.85,4.59,2.85,5.11,0,6.92-3.88,7.75-12.75-3.09,3.17-6.47,4.67-10.53,4.67-9.78,0-15.57-6.57-15.57-18.13,0-14.41,8.05-24.94,19.03-24.94,5.79,0,9.78,2.3,12.79,7.2l.75-5.78h13.39l-4.81,37.37ZM300.03,29.31c-4.29,0-7.14,4.28-7.14,11.48,0,4.59,2.33,7.29,6.17,7.29,4.59,0,7.52-4.04,7.52-11.08,0-4.99-2.33-7.68-6.54-7.68Z"/>
  </g>
  <polygon class="cls-1" points="48.94 14.65 48.94 .33 0 .33 0 14.65 16.98 14.65 16.98 60.56 32.04 60.56 32.04 14.65 48.94 14.65"/>
  <g>
    <path class="cls-1" d="M66.24,31.48v-12.41l-.47-.11c-.93-.21-2.01-.32-3.21-.32-5.14,0-9.22,2.18-11.54,6.04v-5.28h-13.91v41.14h14.29v-20.37c0-2.49.88-4.74,2.46-6.33,1.65-1.65,3.99-2.52,6.77-2.52,1.83,0,3.41.36,4.83.75l.77.21v-.8Z"/>
    <path class="cls-1" d="M83.04,31.61c1.17-1.17,2.69-1.77,4.51-1.77s3.37.6,4.55,1.79c1.81,1.81,2.83,4.99,2.83,8.75,0,5.06-1.94,10.47-7.38,10.47-1.84,0-3.37-.6-4.53-1.78-1.76-1.76-2.77-4.94-2.77-8.7s1.02-6.99,2.79-8.77M87.55,18.62c-12.51,0-21.59,9.15-21.59,21.76,0,6.09,2.18,11.62,6.15,15.6,3.92,3.92,9.4,6.09,15.44,6.09s11.58-2.18,15.53-6.13c3.97-3.97,6.15-9.49,6.15-15.56s-2.19-11.63-6.2-15.63c-3.95-3.96-9.45-6.13-15.48-6.13"/>
    <path class="cls-1" d="M139.63,38.66c0,5.29-1.9,10.93-7.23,10.93-2.05,0-3.61-.56-4.77-1.72-1.7-1.7-2.54-4.71-2.54-9.2,0-3.65.89-6.39,2.63-8.14,1.68-1.69,3.7-1.93,4.75-1.93,1.79,0,3.28.58,4.45,1.74,1.71,1.72,2.7,4.76,2.7,8.33M135.47,17.36c-4.3,0-7.92,1.64-10.53,4.76v-3.61h-13.68v54.51h14.29v-16.79c2.74,3.03,6.4,4.56,10.93,4.56s8.52-1.58,11.54-4.59c3.76-3.75,5.91-9.68,5.91-16.25,0-7.47-2.21-13.81-6.25-17.84-3.15-3.16-7.27-4.76-12.21-4.76"/>
  </g>
  <rect class="cls-1" x="156.54" y="18.76" width="14.29" height="41.8"/>
  <rect class="cls-1" x="156.56" y="3.78" width="14.31" height="11.23"/>
  <g>
    <path class="cls-1" d="M334.37.73c-3.72,0-6.75,3.03-6.75,6.76s3.03,6.76,6.75,6.76,6.77-3.03,6.77-6.76-3.03-6.76-6.77-6.76M334.37,14.98c-4.12,0-7.48-3.36-7.48-7.49s3.36-7.49,7.48-7.49,7.49,3.36,7.49,7.49-3.36,7.49-7.49,7.49"/>
    <path class="cls-1" d="M335.07,7.13c.51,0,.92-.11,1.22-.32.3-.21.45-.59.45-1.14,0-.59-.21-.99-.63-1.21-.22-.11-.53-.17-.9-.17h-2.68v2.83h2.54ZM331.41,3.31h3.78c.62,0,1.14.09,1.54.28.77.35,1.15,1.01,1.15,1.97,0,.5-.1.91-.3,1.22-.21.32-.5.57-.87.77.33.13.57.31.74.52.17.22.26.57.28,1.05l.03,1.13c0,.31.04.55.09.7.06.26.18.43.36.5v.2h-1.38c-.04-.07-.07-.16-.09-.28-.02-.12-.04-.34-.06-.66l-.08-1.39c-.03-.55-.22-.91-.59-1.1-.21-.1-.54-.15-.98-.15h-2.49v3.58h-1.12V3.31Z"/>
  </g>
</svg>